<svg xmlns="http://www.w3.org/2000/svg" enable-background="new 0 0 60 60" viewBox="0 0 60 60" id="facebook">
  <g>
    <path fill="#FFF" d="M50,60H10C4.477,60,0,55.523,0,50V10C0,4.477,4.477,0,10,0h40c5.523,0,10,4.477,10,10v40
		C60,55.523,55.523,60,50,60z"></path>
  </g>
  <g>
    <path fill="#A7D3FC" d="M47.628,54.163c-9.752,1.783-19.504,1.783-29.257,0c-3.333-0.61-5.925-3.201-6.534-6.534
		c-1.783-9.752-1.783-19.504,0-29.257c0.61-3.333,3.201-5.925,6.534-6.534c9.752-1.783,19.504-1.783,29.257,0
		c3.333,0.61,5.925,3.201,6.534,6.534c1.783,9.752,1.783,19.504,0,29.257C53.553,50.962,50.962,53.553,47.628,54.163z"></path>
    <path fill="#FFF" d="M26,52.4V36h-6v-6h6v-4c0-5.52,4.48-10,10-10h4v6h-2c-2.21,0-4,1.79-4,4v4h6l-2,6h-4v16.4H26z"></path>
    <path fill="#0082F7" d="M33.999,53.9c-0.796,0-1.459-0.625-1.497-1.428c-0.04-0.828,0.599-1.53,1.427-1.57
		c3.413-0.164,6.922-0.573,10.431-1.217c2.734-0.501,4.824-2.591,5.325-5.325c1.75-9.528,1.75-19.19,0-28.718
		c-0.501-2.734-2.591-4.825-5.325-5.326c-9.527-1.75-19.191-1.75-28.718,0c-2.734,0.501-4.825,2.591-5.326,5.325
		c-1.75,9.528-1.75,19.19,0,28.718c0.501,2.734,2.591,4.825,5.325,5.326c3.508,0.644,7.018,1.054,10.431,1.217
		c0.828,0.04,1.466,0.742,1.426,1.57c-0.04,0.827-0.733,1.467-1.57,1.426c-3.546-0.169-7.19-0.594-10.829-1.262
		c-3.971-0.728-7.007-3.764-7.735-7.735c-1.815-9.887-1.815-19.914,0-29.801c0.728-3.971,3.764-7.007,7.735-7.735
		c9.886-1.815,19.912-1.816,29.801,0c3.971,0.728,7.008,3.764,7.735,7.735c1.815,9.887,1.815,19.914,0,29.801
		c-0.728,3.971-3.765,7.007-7.735,7.735c-3.639,0.668-7.282,1.093-10.829,1.262C34.047,53.899,34.023,53.9,33.999,53.9z"></path>
    <path fill="#0082F7" d="M34,53.15c-0.414,0-0.75-0.336-0.75-0.75V36c0-0.414,0.336-0.75,0.75-0.75h3.459l1.5-4.5H34
		c-0.414,0-0.75-0.336-0.75-0.75v-4c0-2.619,2.131-4.75,4.75-4.75h1.25v-4.5H36c-5.101,0-9.25,4.149-9.25,9.25v4
		c0,0.414-0.336,0.75-0.75,0.75h-5.25v4.5H26c0.414,0,0.75,0.336,0.75,0.75v16.4c0,0.414-0.336,0.75-0.75,0.75
		s-0.75-0.336-0.75-0.75V36.75H20c-0.414,0-0.75-0.336-0.75-0.75v-6c0-0.414,0.336-0.75,0.75-0.75h5.25V26
		c0-5.928,4.822-10.75,10.75-10.75h4c0.414,0,0.75,0.336,0.75,0.75v6c0,0.414-0.336,0.75-0.75,0.75h-2
		c-1.792,0-3.25,1.458-3.25,3.25v3.25H40c0.241,0,0.468,0.116,0.608,0.312c0.141,0.195,0.18,0.447,0.104,0.676l-2,6
		C38.609,36.543,38.323,36.75,38,36.75h-3.25V52.4C34.75,52.814,34.414,53.15,34,53.15z"></path>
    <rect width="22.798" height="6.521" x="18.612" y="43.335" fill="#FFF" transform="rotate(90 30.01 46.596)"></rect>
  </g>
</svg>
