<svg xmlns="http://www.w3.org/2000/svg" enable-background="new 0 0 512 512" viewBox="0 0 512 512" id="instagram">
  <path fill="#b8daff" d="M503.017,93.994v324.009c0,46.928-38.043,84.971-84.971,84.971H93.952
			c-46.928,0-84.971-38.043-84.971-84.971V93.994c0-46.928,38.043-84.971,84.971-84.971h324.094
			C464.974,9.023,503.017,47.066,503.017,93.994z"></path>
  <path d="M503.017,94.023v324.015c0,46.925-38.082,84.928-85.008,84.928h-79.749
			c46.925,0,85.007-38.002,85.007-84.928V94.023c0-46.925-38.082-85.007-85.007-85.007h79.749
			C464.935,9.016,503.017,47.097,503.017,94.023z" opacity=".15"></path>
  <path fill="#fefdfe" d="M418.967,256.072c0,89.939-72.955,162.894-163.042,162.894
			c-89.938,0-162.893-72.955-162.893-162.894c0-89.938,72.955-163.041,162.893-163.041
			C346.012,93.031,418.967,166.134,418.967,256.072z"></path>
  <path d="M418.966,256.07c0,89.947-72.977,162.924-163.004,162.924c-12.349,0-24.379-1.354-35.851-3.983
			c72.818-16.332,127.232-81.263,127.232-158.94S292.929,113.382,220.111,97.05c11.472-2.629,23.503-3.983,35.851-3.983
			C345.989,93.067,418.966,166.124,418.966,256.07z" opacity=".15"></path>
  <path fill="#fefdfe" d="M449.86,86.942c0,14.679-11.932,26.61-26.61,26.61c-14.679,0-26.611-11.931-26.611-26.61
			s11.932-26.61,26.611-26.61C437.928,60.332,449.86,72.264,449.86,86.942z"></path>
  <path fill="#3f8cf4" d="M418.042,3.05H93.95c-50.143,0-90.943,40.796-90.943,90.943V418
			c0,50.151,40.799,90.951,90.943,90.951h324.092c50.151,0,90.951-40.799,90.951-90.951V93.993
			C508.993,43.845,468.194,3.05,418.042,3.05z M497.043,418c0,43.561-35.439,79-79,79H93.95c-43.554,0-78.992-35.439-78.992-79
			V93.993C14.957,50.435,50.396,15,93.95,15h324.092c43.561,0,79,35.435,79,78.992V418z"></path>
  <path fill="#3f8cf4" d="M255.926 87.057c-93.114 0-168.869 75.822-168.869 169.013 0 93.114 75.756 168.869 168.869 168.869 93.199 0 169.017-75.756 169.017-168.869C424.943 162.879 349.125 87.057 255.926 87.057zM255.926 412.989c-86.524 0-156.919-70.395-156.919-156.919 0-86.601 70.395-157.063 156.919-157.063 86.609 0 157.067 70.461 157.067 157.063C412.993 342.594 342.535 412.989 255.926 412.989zM423.247 54.356c-17.965 0-32.583 14.619-32.583 32.587s14.619 32.584 32.583 32.584c17.972 0 32.591-14.615 32.591-32.584S441.22 54.356 423.247 54.356zM423.247 107.577c-11.375 0-20.633-9.255-20.633-20.633s9.258-20.637 20.633-20.637c11.382 0 20.641 9.258 20.641 20.637S434.63 107.577 423.247 107.577z"></path>
</svg>
